# xmcd
#
# Track frame offsets:
#	150
#	18228
#	33829
#	45092
#	57694
#	72101
#	87623
#	102364
#	115406
#	129720
#	145029
#	158676
#	173448
#	189868
#
# Disc length: 2700 seconds
# Revision: 0
# Processed by: cddbd v1.5.2PL0 Copyright (c) Steve Scherf et al.
# Submitted via: dBpowerAMP V12.0
#
DISCID=b00a8a0e
DTITLE=Slim Newton - Momma Your Guitar's Come Back Home
DYEAR=1900
DGENRE=Country
TTITLE0=Momma Your Guitar's Come Back Home
TTITLE1=The Long Black Gun
TTITLE2=Ther're Gonna String Me Up
TTITLE3=The Lady Loved a Tramp
TTITLE4=Howlin At The Moon
TTITLE5=I'm Sorry That's All I Can Say
TTITLE6=That's Truck Drivin
TTITLE7=If Tear Drops Were Pennies
TTITLE8=Blue Yodel No 6
TTITLE9=What is Peace
TTITLE10=Elusive Roadhouse Light
TTITLE11=Old Time Songs
TTITLE12=I Never Got to Sing with All My Hero's
TTITLE13=I Saw The Light
EXTD=
EXTT0=
EXTT1=
EXTT2=
EXTT3=
EXTT4=
EXTT5=
EXTT6=
EXTT7=
EXTT8=
EXTT9=
EXTT10=
EXTT11=
EXTT12=
EXTT13=
PLAYORDER=
